<?xml version="1.0" encoding="utf-8"?>
<!-- Generator: Adobe Illustrator 24.0.0, SVG Export Plug-In . SVG Version: 6.00 Build 0)  -->
<svg version="1.1" id="Capa_1" xmlns="http://www.w3.org/2000/svg" xmlns:xlink="http://www.w3.org/1999/xlink" x="0px" y="0px"
	 viewBox="0 0 1920 1080" style="enable-background:new 0 0 1920 1080;" xml:space="preserve">
<style type="text/css">
	.st0{fill:#FF1103;}
	.st1{fill:#000546;}
	.st2{fill:#FFAF28;}
	.st3{fill:#E6E6E6;}
</style>
<g>
	<path class="st0" d="M-135,616.7c-74.1-50-64.3-133.7,2.3-189.5c66.6-55.8,177.2-86.6,287.4-98.7c110.2-12.1,222.9-11.3,334.1-7.5
		C928.1,335.7,1062.6,168,1169,110c117.9-64.2,299.2-29.7,433.2-74.5c67-22.4,118.1-72,92.6-115.3l5-186.9l-2212.6,9.4l-24,900.1
		L-135,616.7z"/>
	<path class="st1" d="M1627.8-88.3c-70.4-19.8-156.9-6.1-222.4,21c-65.5,27.1-115.5,65.8-168.5,101.8c-53,36-113,70.8-187.7,85.9
		C894,151.7,730,89.6,568.8,102.8c-116.1,9.5-215.3,56.7-302.6,105.5C178.8,257.1,93.6,310.6-15.1,338.4
		c-130.5,33.3-277,25.1-414.9,11.3c-137.9-13.7-278-32.4-416.7-17.9l-12.9-562.7l2536.5-58L1627.8-88.3z"/>
	<path class="st2" d="M-545.5,473.7c23-122.8,194.8-231.2,394.5-248.9c104.4-9.3,209.2,3.9,313.5,10.6c104.3,6.6,216.4,5.7,307.3-28
		c73.3-27.2,123.3-72.2,178.1-112.7c54.8-40.4,123.2-79.6,207.5-86.3c84.9-6.8,180.7,19.3,250.6-11.7
		c51.2-22.7,63.4-66.8,107.1-94.9c42.1-27,106.1-34.9,165.8-40.2c59.8-5.3,123.3-10.1,170.9-33.3c47.6-23.2,67.4-72.3,22.5-96.3
		l-2381.8,54.4L-545.5,473.7z"/>
	<g>
		<image style="overflow:visible;" width="2303" height="492" xlink:href="86D9497F.png"  transform="matrix(1 0 0 1 -734 -276)">
		</image>
	</g>
	<path class="st3" d="M1400.5-234.9c-98.8-4.4-185.2,41.2-253.3,86.4c-68.1,45.2-138.9,96.2-236.5,108.6
		c-91.7,11.7-184.4-14.2-277.6-10.1c-90.7,4-172.9,36.1-242.6,72.7s-132,79-207.8,110.7c-75.9,31.7-171,52-258,37.3
		c-60.8-10.3-112.9-36.8-175.9-41c-49.3-3.3-98.5,7.7-144.4,20c-45.9,12.3-91.9,26.4-141.4,29.8c-49.5,3.4-104.7-6.4-129.8-32.3
		l-7.3-321.6L1400.5-234.9z"/>
</g>
</svg>
