<?xml version="1.0" encoding="utf-8"?>
<!-- Generator: Adobe Illustrator 24.0.0, SVG Export Plug-In . SVG Version: 6.00 Build 0)  -->
<svg version="1.1" id="Capa_1" xmlns="http://www.w3.org/2000/svg" xmlns:xlink="http://www.w3.org/1999/xlink" x="0px" y="0px"
	 viewBox="0 0 578.8 210.1" style="enable-background:new 0 0 578.8 210.1;" xml:space="preserve">
<style type="text/css">
	.st0{fill:#000546;}
	.st1{fill:none;}
	.st2{fill:#FF1103;}
</style>
<g>
	<path class="st0" d="M50.9,14.2c-9.7,3.7-17.3,9.4-22.6,17.1c-5.3,7.7-8,17.2-8,28.4c0,5.1,0.5,8.6,1.4,10.6c1,2,1.4,3.1,1.4,3.4
		c-7.4,0-12.9-1.5-16.5-4.6C3,66.1,1.2,61,1.2,53.9c0-8.8,3.6-17.3,10.8-25.6c7.2-8.3,16.4-15,27.6-20.1C50.9,3,62.1,0.5,73.3,0.5
		c1.9,0,4.7,0.1,8.2,0.4l1.8,126.3L126.5,1.5h26.1l1.8,125.7L197.6,1.5H212l-57.1,153h-29.6L122.8,50l-39,104.5H54.2L50.9,14.2z"/>
	<path class="st0" d="M253.3,149.1c-3.9-4.4-5.9-10-5.9-16.5c0-2.9,0.3-6.1,1-9.8c0.7-3.6,1.4-7.2,2.2-10.6c0.8-3.4,1.3-5.6,1.5-6.6
		c1.1-4.8,2.1-9.5,3.1-14.2c1-4.7,1.4-8.4,1.4-11.3c0-7-2.5-10.5-7.4-10.5c-3.6,0-6.7,1.7-9.4,5.2c-2.7,3.5-4.9,8-6.6,13.7l-14,65.9
		h-29.6l29.8-139.7l30.4-4.1l-11.1,51.8c6.8-7.7,14.9-11.5,24-11.5c7,0,12.5,1.9,16.6,5.8c4.1,3.8,6.2,9.7,6.2,17.5
		c0,4-0.5,8.4-1.4,13.2c-1,4.9-2.3,10.8-4.1,17.8c-1.1,4.2-2.1,8.4-3,12.4c-0.9,4-1.3,7.2-1.3,9.5c0,2.7,0.6,4.9,1.8,6.4
		c1.2,1.5,3.4,2.3,6.4,2.3c4.1,0,7.4-1.5,9.9-4.4c2.5-2.9,4.9-7.5,7.4-13.7h8.6c-5.1,15.1-10.9,25.2-17.6,30.3
		c-6.6,5.1-13.5,7.7-20.6,7.7C263.4,155.7,257.2,153.5,253.3,149.1z"/>
	<path class="st0" d="M307,147.8c-5.6-5.3-8.4-13.5-8.4-24.7c0-9.4,1.8-19.9,5.5-31.2c3.7-11.4,9.7-21.2,18.1-29.5
		c8.4-8.3,19-12.4,31.8-12.4c15.1,0,22.6,6.6,22.6,19.7c0,7.7-2.2,14.7-6.6,21.2c-4.4,6.4-10.2,11.6-17.5,15.5
		c-7.3,3.9-15,6.1-23.2,6.7c-0.3,4.1-0.4,6.8-0.4,8.2c0,6.7,1.2,11.3,3.5,13.7c2.3,2.4,6.1,3.6,11.3,3.6c7.4,0,13.7-1.7,19-5.1
		c5.3-3.4,11.1-8.6,17.4-15.6h7c-15.2,25.3-34,38-56.5,38C320.5,155.7,312.7,153.1,307,147.8z M345.6,97.8
		c4.6-3.3,8.3-7.5,11.1-12.5c2.8-5.1,4.2-10.4,4.2-16c0-5.6-1.7-8.4-5.1-8.4c-4.9,0-9.8,4.3-14.5,12.9c-4.7,8.6-8.1,18.4-10.2,29.4
		C336.1,102.9,341,101.1,345.6,97.8z"/>
	<path class="st0" d="M385.9,147.8c-5.6-5.3-8.4-13.5-8.4-24.7c0-9.4,1.8-19.9,5.5-31.2c3.7-11.4,9.7-21.2,18.1-29.5
		c8.4-8.3,19-12.4,31.8-12.4c15.1,0,22.6,6.6,22.6,19.7c0,7.7-2.2,14.7-6.6,21.2c-4.4,6.4-10.2,11.6-17.5,15.5
		c-7.3,3.9-15,6.1-23.2,6.7c-0.3,4.1-0.4,6.8-0.4,8.2c0,6.7,1.2,11.3,3.5,13.7c2.3,2.4,6.1,3.6,11.3,3.6c7.4,0,13.7-1.7,19-5.1
		c5.3-3.4,11.1-8.6,17.4-15.6h7c-15.2,25.3-34,38-56.5,38C399.4,155.7,391.5,153.1,385.9,147.8z M424.4,97.8
		c4.6-3.3,8.3-7.5,11.1-12.5c2.8-5.1,4.2-10.4,4.2-16c0-5.6-1.7-8.4-5.1-8.4c-4.9,0-9.8,4.3-14.5,12.9c-4.7,8.6-8.1,18.4-10.2,29.4
		C415,102.9,419.8,101.1,424.4,97.8z"/>
	<path class="st0" d="M463.4,149.6c-4-4.1-6.1-10.3-6.1-18.5c0-3.4,0.5-7.9,1.6-13.3l22-102.9l30.4-4.1l-23.6,110.9
		c-0.5,2.1-0.8,4.2-0.8,6.6c0,2.7,0.6,4.7,2,5.9c1.3,1.2,3.5,1.7,6.5,1.7c4,0,7.7-1.7,11.1-5c3.4-3.4,5.9-7.7,7.4-13h8.6
		c-5.1,14.8-11.6,24.8-19.5,30.1c-7.9,5.3-15.8,7.9-23.6,7.9C472.8,155.7,467.5,153.7,463.4,149.6z"/>
	<path class="st0" d="M520.6,151.9c-4.5-2.5-7.9-5.8-10.1-9.9c-2.2-4-3.3-8.2-3.3-12.6c0-4.5,1.1-8.5,3.2-11.8
		c2.1-3.4,4.7-5.8,7.7-7.3c5.3-9.6,10-19.3,14-29.1c4-9.8,7.7-20.4,11.3-31.7l30.4-4.1c0.7,17.5,1.8,36.5,3.5,56.9
		c0.7,8.2,1,14.2,1,17.9c0,8.4-2.1,15.2-6.4,20.5c-4.2,5.3-9.5,9.2-15.7,11.5c-6.2,2.3-12.6,3.5-19,3.5
		C530.7,155.7,525.2,154.5,520.6,151.9z M543.4,135c3.4-3,5.1-7.9,5.1-14.6c0-4.1-0.4-9.9-1.2-17.3c-1.4-15.6-2.3-26.1-2.7-31.4
		c-3.3,10.8-8.8,23.8-16.6,38.8c3.1,1.6,4.7,4,4.7,7.2c0,2.6-0.9,4.9-2.6,7c-1.7,2.1-3.9,3.1-6.5,3.1c-2.9,0-4.7-0.9-5.5-2.7
		c0,4.9,1,8.6,3,10.9c2,2.3,5.2,3.5,9.6,3.5C535.8,139.5,540,138,543.4,135z"/>
</g>
<polygon class="st1" points="148.6,124.9 167.5,124.9 167.5,124.9 148.6,124.9 "/>
<g>
	<path class="st2" d="M61.1,204.4c-1.2,0-2.7,0-4.5-0.1c-2.4-0.1-3.9-0.1-4.5-0.1l-6-0.1c-0.6,0-1.5,0-2.6-0.1
		c-0.4-0.1-0.6-0.3-0.6-0.6c0-1.5,0-3.6,0.1-6.6c0-2.9,0.1-5.1,0.1-6.6c0-1.6,0-3.9-0.1-7c-0.1-3.1-0.1-5.4-0.1-7
		c0-0.3,0.2-0.4,0.6-0.4c0.4,0,1,0,1.8,0.1c0.8,0,1.4,0.1,1.8,0.1c0.4,0,1.1,0,2-0.1c0.9,0,1.5-0.1,2-0.1c0.2,0,0.3,0.1,0.3,0.4
		l0,0.3c-0.2,2.5-0.3,6.3-0.5,11.4l0,5.3c0,1.7,0,3,0,3.8c0,0.2,0,0.3,0,0.5c0,0.2,0.1,0.3,0.3,0.3c0,0,0.2,0,0.5,0
		c1.2,0,3-0.1,5.4-0.2c2.4-0.1,4.2-0.2,5.4-0.2c0.4,0,0.5,0.2,0.5,0.5c0,2.3-0.2,4.3-0.5,5.9c-0.1,0.3-0.2,0.6-0.4,0.6
		C61.8,204.4,61.5,204.4,61.1,204.4z"/>
	<path class="st2" d="M85.2,194.1c0,1,0.1,2.6,0.2,4.6c0.1,2,0.2,3.6,0.2,4.6c0,0.5-0.2,0.8-0.7,0.9c-1.7,0.1-3.6,0.2-5.7,0.2
		c-0.3,0-0.4-0.4-0.5-1.2c-0.1-0.8-0.2-1.2-0.3-1.2c-0.1,0.1-0.2,0.2-0.4,0.3c-1.5,1.5-3.1,2.3-4.8,2.3c-2.6,0-4.8-1-6.5-3.1
		c-1.6-1.9-2.4-4.2-2.4-6.9c0-3.1,0.8-5.6,2.5-7.5c1.7-2,4.1-2.9,7.2-2.9c2.1,0,3.8,0.7,5,2.2c0.1,0.1,0.1,0.1,0.1,0.1
		c0.1,0,0.3-0.3,0.4-1c0.2-0.6,0.3-1,0.6-1c0.5,0,1.4,0.1,2.8,0.4c1.3,0.3,2.3,0.5,2.9,0.7c0.2,0.1,0.3,0.2,0.3,0.3
		c0,0.1,0,0.2-0.1,0.4C85.4,188.8,85.2,191.3,85.2,194.1z M78.7,194.2c0-1.1-0.4-2.1-1.1-2.8s-1.7-1.1-2.8-1.1
		c-1.2,0-2.1,0.4-2.8,1.1s-1.1,1.7-1.1,2.8c0,1.1,0.4,2,1.1,2.8c0.8,0.8,1.7,1.2,2.7,1.2c1.1,0,2.1-0.4,2.8-1.1
		S78.7,195.3,78.7,194.2z"/>
	<path class="st2" d="M119.6,194.1c0,1,0.1,2.6,0.2,4.6c0.1,2,0.2,3.6,0.2,4.6c0,0.5-0.2,0.8-0.7,0.9c-1.7,0.1-3.6,0.2-5.7,0.2
		c-0.3,0-0.4-0.4-0.5-1.2c-0.1-0.8-0.2-1.2-0.3-1.2c-0.1,0.1-0.2,0.2-0.4,0.3c-1.5,1.5-3.1,2.3-4.8,2.3c-2.6,0-4.8-1-6.5-3.1
		c-1.6-1.9-2.4-4.2-2.4-6.9c0-3.1,0.8-5.6,2.5-7.5c1.7-2,4.1-2.9,7.2-2.9c2.1,0,3.8,0.7,5,2.2c0.1,0.1,0.1,0.1,0.1,0.1
		c0.1,0,0.3-0.3,0.4-1c0.2-0.6,0.3-1,0.6-1c0.5,0,1.4,0.1,2.8,0.4c1.3,0.3,2.3,0.5,2.9,0.7c0.2,0.1,0.3,0.2,0.3,0.3
		c0,0.1,0,0.2-0.1,0.4C119.9,188.8,119.6,191.3,119.6,194.1z M113.2,194.2c0-1.1-0.4-2.1-1.1-2.8s-1.7-1.1-2.8-1.1
		c-1.2,0-2.1,0.4-2.8,1.1s-1.1,1.7-1.1,2.8c0,1.1,0.4,2,1.1,2.8c0.8,0.8,1.7,1.2,2.7,1.2c1.1,0,2.1-0.4,2.8-1.1
		S113.2,195.3,113.2,194.2z"/>
	<path class="st2" d="M145.8,194.4c0,2.9-0.8,5.2-2.5,7.1c-1.7,2-4,2.9-6.9,2.9c-1,0-2.1-0.3-3.3-0.8s-1.7-0.8-1.6-0.8
		c-0.2,0-0.3,0.2-0.3,0.6c0,0.7,0,1.7,0.1,3.1c0.1,1.4,0.1,2.4,0.1,3.1c0,0.4-0.2,0.6-0.7,0.6l-4.1,0c-0.9,0-1.5,0-1.8-0.1
		c-0.4-0.1-0.6-0.3-0.6-0.7l0-15.5c0-3.1-0.2-5.8-0.7-7.9c0-0.1,0-0.2,0-0.3c0-0.2,0.1-0.3,0.2-0.4c0.5-0.2,1.5-0.4,3-0.6
		c1.4-0.2,2.5-0.3,3.1-0.3c0.5,0,0.8,0.3,0.9,1c0.1,0.7,0.2,1,0.3,1c-0.1,0,0.4-0.4,1.7-1.1c1.3-0.7,2.4-1.1,3.5-1.1
		c2.9,0,5.2,1,7,2.9C145,189.1,145.8,191.5,145.8,194.4z M138.4,194.4c0-1.1-0.3-2-1-2.8c-0.7-0.8-1.6-1.3-2.6-1.3
		c-1.1,0-1.9,0.4-2.6,1.3c-0.6,0.8-0.8,1.7-0.8,2.8c0,1.1,0.3,2.1,0.9,2.8c0.6,0.8,1.5,1.2,2.6,1.2
		C137.2,198.5,138.4,197.1,138.4,194.4z"/>
	<path class="st2" d="M170.6,194.4c0,2.9-0.8,5.2-2.5,7.1c-1.7,2-4,2.9-6.9,2.9c-1,0-2.1-0.3-3.3-0.8s-1.7-0.8-1.6-0.8
		c-0.2,0-0.3,0.2-0.3,0.6c0,0.7,0,1.7,0.1,3.1c0.1,1.4,0.1,2.4,0.1,3.1c0,0.4-0.2,0.6-0.7,0.6l-4.1,0c-0.9,0-1.5,0-1.8-0.1
		c-0.4-0.1-0.6-0.3-0.6-0.7l0-15.5c0-3.1-0.2-5.8-0.7-7.9c0-0.1,0-0.2,0-0.3c0-0.2,0.1-0.3,0.2-0.4c0.5-0.2,1.5-0.4,3-0.6
		c1.4-0.2,2.5-0.3,3.1-0.3c0.5,0,0.8,0.3,0.9,1c0.1,0.7,0.2,1,0.3,1c-0.1,0,0.4-0.4,1.7-1.1c1.3-0.7,2.4-1.1,3.5-1.1
		c2.9,0,5.2,1,7,2.9C169.8,189.1,170.6,191.5,170.6,194.4z M163.1,194.4c0-1.1-0.3-2-1-2.8c-0.7-0.8-1.6-1.3-2.6-1.3
		c-1.1,0-1.9,0.4-2.6,1.3c-0.6,0.8-0.8,1.7-0.8,2.8c0,1.1,0.3,2.1,0.9,2.8c0.6,0.8,1.5,1.2,2.6,1.2
		C162,198.5,163.1,197.1,163.1,194.4z"/>
	<path class="st2" d="M204.8,175.6c0-0.3-0.1,0.1-0.2,1.3c-0.1,1.5-0.3,3.4-0.3,5.7c-0.1,2.6-0.2,5.6-0.2,9c0,5.5,0.2,9.5,0.5,11.8
		c0,0.3,0,0.4,0,0.5c0,0.1-0.1,0.2-0.3,0.3c-0.5,0.1-2.3,0.1-5.3,0.1c-0.7,0-1.1-0.1-1.2-0.4c0-0.5-0.1-1-0.1-1.5
		c0-0.1-0.1-0.2-0.2-0.3c-0.1,0-0.2,0.1-0.3,0.2c-1.4,1.4-3.3,2.1-5.4,2.1c-2.8,0-5.1-1-6.8-3c-1.6-1.9-2.4-4.3-2.4-7.2
		c0-2.9,0.8-5.3,2.4-7.2c1.7-2,4-3,6.8-3c2,0,3.6,0.6,4.7,1.9c0.2,0.2,0.3,0.3,0.4,0.3c0.1,0,0.2-0.2,0.2-0.5c0-1,0-2.6-0.1-4.6
		c-0.1-2.1-0.1-3.6-0.1-4.6c0-0.4,0.1-0.6,0.3-0.7c0.9,0,2-0.1,3.5-0.2c2.7-0.3,3.9-0.5,3.6-0.5
		C204.7,175.1,204.8,175.2,204.8,175.6z M197.2,194.1c0-1.1-0.4-2-1.1-2.8c-0.7-0.8-1.6-1.2-2.7-1.2c-1.1,0-2,0.4-2.6,1.2
		c-0.6,0.8-1,1.8-1,2.9c0,1.1,0.3,2,1,2.8c0.7,0.8,1.5,1.2,2.6,1.2s2-0.4,2.7-1.2C196.9,196.1,197.2,195.1,197.2,194.1z"/>
	<path class="st2" d="M226.2,193.2c0,1.4-0.4,2.1-1.3,2.3c-0.1,0-1.5,0.2-4.2,0.4c-1.6,0.2-3.9,0.4-7.1,0.6c0.2,0.9,0.8,1.5,1.7,2
		c0.8,0.4,1.7,0.6,2.7,0.6c1.2,0,2.4-0.3,3.6-1c0.5-0.3,1-0.6,1.5-1c0.3,0.1,0.8,0.8,1.4,2.1c0.7,1.2,1,2,1,2.4
		c0,0.1-0.1,0.2-0.3,0.5c-1.6,1.8-4.2,2.6-7.6,2.6c-3.2,0-5.8-0.9-7.7-2.8c-2-1.9-3-4.4-3-7.6c0-3.1,0.9-5.6,2.7-7.6
		c1.8-2,4.3-3.1,7.4-3.1c2.6,0,4.8,0.9,6.6,2.8C225.3,188.4,226.2,190.6,226.2,193.2z M219.2,192c0-0.8-0.3-1.6-0.9-2.2
		c-0.6-0.6-1.3-0.9-2.1-0.9c-0.8,0-1.5,0.4-2.1,1.1c-0.5,0.7-0.8,1.4-0.8,2.3c0,0.4,0.2,0.5,0.6,0.5c1,0,2.5-0.2,4.6-0.5
		C218.9,192.2,219.2,192.1,219.2,192z"/>
	<path class="st2" d="M258,190.2c0,2.3-0.1,3.6-0.2,4.1c-0.3,1-1.2,2.6-2.8,4.8c-1.3,2-2.5,3.5-3.4,4.6c-0.3,0.4-1.4,0.6-3.2,0.6
		c-1.5,0-2.5-0.1-3-0.2c-0.3-0.1-0.5-0.2-0.7-0.4c-0.8-0.9-1.9-2.4-3.4-4.5c-1.6-2.3-2.5-3.9-2.9-4.8c-0.3-0.9-0.5-2.3-0.5-4.2
		c0-0.5,0-1.3,0-2.4c0-1.1,0-1.8,0-2.4c0-0.3,0.2-0.5,0.7-0.5c0.7,0,1.7,0,3.1,0.1c1.4,0,2.4,0.1,3.1,0.1c0.3,0,0.5,0.2,0.5,0.6
		c0,0.4,0,0.9-0.1,1.7c-0.1,0.8-0.1,1.3-0.1,1.7c0,1.4,0,2.5,0.1,3.4c0,0.5,0.4,1.3,1.2,2.6c0.8,1.3,1.3,2,1.7,2
		c0.3,0,0.9-0.6,1.6-1.9c0.7-1.2,1.1-2.1,1.1-2.5c0.1-1,0.2-2.1,0.2-3.5c0-0.4,0-1-0.1-1.8c-0.1-0.8-0.1-1.4-0.1-1.7
		c0-0.4,0.1-0.6,0.4-0.6c0.3,0,0.8,0,1.4,0c0.6,0,1.1,0,1.4,0c0.3,0,0.8,0,1.5-0.1c0.6-0.1,1.1-0.1,1.5-0.1c0.3,0,0.6,0.2,0.7,0.5
		C257.9,186.3,258,187.8,258,190.2z"/>
	<path class="st2" d="M268.2,194.9c0,1,0,2.4,0.1,4.4c0,1.9,0.1,3.4,0.1,4.4c0,0.3-0.2,0.4-0.5,0.5c-0.5,0.1-1.5,0.1-3.1,0.1
		c-1.6,0-2.6,0-3.1-0.1c-0.3-0.1-0.5-0.1-0.5-0.3c0-0.1,0-0.3,0-0.6c0-0.9,0-2.3,0.1-4.2s0.1-3.3,0.1-4.2c0-3.8-0.1-6.8-0.4-9.1
		c0-0.2,0-0.4,0-0.4c0-0.3,0.2-0.4,0.5-0.4c0.4,0,0.9,0,1.7,0.1s1.4,0.1,1.7,0.1s1,0,1.7-0.1c0.8-0.1,1.4-0.1,1.7-0.1
		c0.3,0,0.5,0.1,0.5,0.4c0,0.1,0,0.2,0,0.4C268.4,188.4,268.2,191.4,268.2,194.9z M268.7,179.9c0,2.3-1.3,3.5-3.9,3.5
		c-1.1,0-2.1-0.3-2.8-0.9c-0.8-0.6-1.2-1.5-1.2-2.6c0-1,0.4-1.9,1.2-2.6c0.8-0.6,1.7-0.9,2.8-0.9c1,0,2,0.3,2.7,0.9
		C268.3,178.1,268.7,178.9,268.7,179.9z"/>
	<path class="st2" d="M292.3,194.1c0,1,0.1,2.6,0.2,4.6c0.1,2,0.2,3.6,0.2,4.6c0,0.5-0.2,0.8-0.7,0.9c-1.7,0.1-3.6,0.2-5.7,0.2
		c-0.3,0-0.4-0.4-0.5-1.2c-0.1-0.8-0.2-1.2-0.3-1.2c-0.1,0.1-0.2,0.2-0.4,0.3c-1.5,1.5-3.1,2.3-4.8,2.3c-2.6,0-4.8-1-6.5-3.1
		c-1.6-1.9-2.4-4.2-2.4-6.9c0-3.1,0.8-5.6,2.5-7.5c1.7-2,4.1-2.9,7.2-2.9c2.1,0,3.8,0.7,5,2.2c0.1,0.1,0.1,0.1,0.1,0.1
		c0.1,0,0.3-0.3,0.4-1s0.3-1,0.6-1c0.5,0,1.4,0.1,2.8,0.4c1.3,0.3,2.3,0.5,2.9,0.7c0.2,0.1,0.3,0.2,0.3,0.3c0,0.1,0,0.2-0.1,0.4
		C292.5,188.8,292.3,191.3,292.3,194.1z M285.8,194.2c0-1.1-0.4-2.1-1.1-2.8c-0.7-0.7-1.7-1.1-2.8-1.1s-2.1,0.4-2.8,1.1
		s-1.1,1.7-1.1,2.8c0,1.1,0.4,2,1.1,2.8c0.8,0.8,1.7,1.2,2.7,1.2c1.1,0,2.1-0.4,2.8-1.1S285.8,195.3,285.8,194.2z"/>
	<path class="st2" d="M304.2,199.9c0,2.8-0.5,4.9-1.4,6.3c-1.1,1.5-2.9,2.6-5.5,3.1c-0.8,0.2-1.6,0.2-2.5,0.2
		c-0.5,0-0.8-1.2-0.8-3.5c0-1.2,0.2-1.8,0.5-1.9c1.1-0.3,1.7-0.6,2-0.9c0.3-0.4,0.5-1.1,0.6-2.2c0-0.7,0.1-2.6,0.1-5.5
		c0-3.5-0.2-6.7-0.7-9.6c0-0.1,0-0.2,0-0.3c0-0.3,0.2-0.5,0.6-0.5c1.3,0,2.4,0,3.1-0.1c2.1-0.2,3.3-0.4,3.5-0.4
		c0.3,0,0.4,0.2,0.5,0.5c0.1,0.6,0.1,3.3,0.1,7.9V199.9z M304.4,179.7c0,2.3-1.3,3.4-4,3.4c-1.1,0-2.1-0.3-2.8-0.8
		c-0.8-0.6-1.2-1.5-1.2-2.6c0-1,0.4-1.9,1.2-2.5c0.8-0.6,1.7-0.9,2.7-0.9c1.1,0,2,0.3,2.7,0.9C304,177.9,304.4,178.7,304.4,179.7z"
		/>
	<path class="st2" d="M326.1,193.2c0,1.4-0.4,2.1-1.3,2.3c-0.1,0-1.5,0.2-4.2,0.4c-1.6,0.2-3.9,0.4-7.1,0.6c0.2,0.9,0.8,1.5,1.7,2
		c0.8,0.4,1.7,0.6,2.7,0.6c1.2,0,2.4-0.3,3.6-1c0.5-0.3,1-0.6,1.5-1c0.3,0.1,0.8,0.8,1.4,2.1s1,2,1,2.4c0,0.1-0.1,0.2-0.3,0.5
		c-1.6,1.8-4.2,2.6-7.6,2.6c-3.2,0-5.8-0.9-7.7-2.8c-2-1.9-3-4.4-3-7.6c0-3.1,0.9-5.6,2.7-7.6c1.8-2,4.3-3.1,7.4-3.1
		c2.6,0,4.8,0.9,6.6,2.8C325.2,188.4,326.1,190.6,326.1,193.2z M319.1,192c0-0.8-0.3-1.6-0.9-2.2s-1.3-0.9-2.1-0.9
		c-0.8,0-1.5,0.4-2.1,1.1c-0.5,0.7-0.8,1.4-0.8,2.3c0,0.4,0.2,0.5,0.6,0.5c1,0,2.5-0.2,4.6-0.5C318.9,192.2,319.1,192.1,319.1,192z"
		/>
	<path class="st2" d="M340.1,187.8c0,0.1-0.1,0.3-0.3,0.5c-0.4-0.1-0.8-0.1-1.1-0.1c-0.8,0-1.5,0.2-2,0.5c-0.6,0.4-1,1-1,1.7
		c0,0.5,0.3,1.1,1,1.8c1,1.1,1.7,1.8,1.9,2.2c0.7,1,1,2.1,1,3.3c0,0.7-0.1,1.4-0.4,2.2c-0.3,0.8-0.7,1.5-1.2,1.8
		c-1,0.9-2.2,1.6-3.5,2.2c-1.4,0.6-2.8,0.9-4,0.9c-0.3,0-0.9-0.7-1.8-2.2c-0.9-1.5-1.4-2.3-1.4-2.7c0-0.1,0.1-0.2,0.2-0.2
		c0.9-0.2,1.9-0.3,2.8-0.5c1.2-0.4,1.8-1,1.8-1.8c0-0.6-0.3-1.3-1-2.1c-1.2-1.4-1.9-2.1-1.9-2.2c-0.7-1-1-2-1-3.1c0-2,1-3.7,3.1-5.1
		c1.8-1.2,3.8-1.9,5.8-1.9c0.2,0,0.7,0.7,1.6,2.2C339.7,186.8,340.1,187.6,340.1,187.8z"/>
	<path class="st2" d="M366.6,190.9c0,0-0.4-0.1-1.2-0.3c-0.8-0.2-1.4-0.3-1.9-0.3c-1.2,0-2.1,0.4-2.9,1.1s-1.1,1.7-1.1,2.9
		c0,1.2,0.4,2.2,1.2,2.9c0.8,0.7,1.8,1.1,3,1.1c0.6,0,1.3-0.2,2-0.5c0.7-0.3,1.1-0.5,1-0.5c0.2,0,0.5,0.9,0.9,2.6
		c0.3,1.6,0.5,2.6,0.5,3.1s-0.8,0.9-2.5,1.3c-1.3,0.3-2.3,0.4-3.1,0.4c-2.9,0-5.4-1-7.3-3c-1.9-2-2.9-4.5-2.9-7.4
		c0-2.9,1-5.4,2.9-7.4s4.4-3,7.3-3c2,0,3.8,0.4,5.3,1.3c0.3,0.2,0.5,0.4,0.5,0.5c0,0.2-0.2,1-0.6,2.4c-0.4,1.4-0.6,2.2-0.7,2.5
		C366.8,190.7,366.7,190.9,366.6,190.9z"/>
	<path class="st2" d="M389.8,194.2c0,3.1-0.9,5.5-2.8,7.4s-4.3,2.9-7.4,2.9c-2.9,0-5.4-0.9-7.3-2.8c-1.9-1.9-2.9-4.3-2.9-7.2
		c0-3.1,0.9-5.6,2.7-7.6c1.8-1.9,4.3-2.9,7.4-2.9c3,0,5.5,0.9,7.4,2.8C388.8,188.7,389.8,191.2,389.8,194.2z M383.2,194.2
		c0-1.1-0.3-2-1-2.8c-0.7-0.8-1.5-1.2-2.6-1.2c-1.1,0-1.9,0.4-2.6,1.2c-0.6,0.8-1,1.7-1,2.8c0,1.1,0.3,2,1,2.8
		c0.7,0.8,1.6,1.2,2.6,1.2c1,0,1.9-0.4,2.6-1.2C382.8,196.2,383.2,195.3,383.2,194.2z"/>
	<path class="st2" d="M424.3,203.4c0,0.5-0.2,0.7-0.6,0.8c-0.4,0.1-1.4,0.1-3,0.1c-1.6,0-2.7,0-3.1-0.1s-0.6-0.4-0.6-1
		c0-0.6,0-1.5,0.1-2.8c0-1.2,0.1-2.1,0.1-2.8c0-2.3,0-4-0.1-5c-0.1-1.6-0.8-2.4-2.3-2.4c-0.6,0-1.3,0.3-1.9,0.8
		c-0.6,0.5-1,1.1-1,1.8c-0.1,0.6-0.1,2.2-0.1,4.9c0,0.6,0,1.6,0.1,2.9c0,1.3,0.1,2.2,0.1,2.9c0,0.4-0.2,0.7-0.6,0.7h-6.1
		c-0.4,0-0.6-0.3-0.6-0.8c0-0.6,0-1.6,0.1-2.8s0.1-2.2,0.1-2.9c0-0.5,0-1.2,0-2.3c0-1,0-1.8,0-2.3c0-1.9-0.7-2.9-2.2-2.9
		c-0.6,0-1.2,0.2-1.9,0.7c-0.8,0.5-1.1,1-1.1,1.6c0,1.2,0,3,0,5.5c0,2.4,0,4.2,0,5.4c0,0.3,0,0.5-0.1,0.6c-0.1,0.1-0.3,0.1-0.6,0.2
		c-0.6,0.1-1.6,0.1-2.9,0.1c-0.8,0-1.8,0-2.9-0.1c-0.3,0-0.5-0.1-0.6-0.1s-0.1-0.3-0.1-0.6c0-1.1,0-2.7,0-4.8c0-2.1,0-3.7,0-4.8
		c0-2.2-0.2-4.7-0.5-7.4c0-0.2,0-0.3,0-0.4c0-0.2,0.1-0.4,0.3-0.5c0.3-0.1,0.9-0.2,1.7-0.3c1-0.1,1.6-0.2,1.8-0.2
		c0.1,0,0.7-0.2,1.6-0.4c0.7-0.2,1.2-0.3,1.6-0.3c0.3,0,0.4,0.5,0.4,1.4c0,0.9,0.1,1.4,0.2,1.4c0.1-0.1,0.3-0.1,0.5-0.3
		c1.2-0.9,2.2-1.6,2.9-1.9c1-0.5,2.2-0.7,3.4-0.7c1.2,0,2.3,0.3,3.3,0.8c1.1,0.6,1.8,1.5,2.1,2.6c0.7-1,1.7-1.8,2.9-2.4
		c1.2-0.7,2.5-1,3.6-1c1.8,0,3.2,0.4,4.3,1.2c1.3,0.9,1.9,2.2,1.9,4c0,0.7,0,1.8-0.1,3.2c0,1.4-0.1,2.5-0.1,3.2c0,0.8,0,2.1,0.1,3.8
		C424.3,201.2,424.3,202.5,424.3,203.4z"/>
	<path class="st2" d="M450.3,194.4c0,2.9-0.8,5.2-2.5,7.1c-1.7,2-4,2.9-6.9,2.9c-1,0-2.1-0.3-3.3-0.8s-1.7-0.8-1.6-0.8
		c-0.2,0-0.3,0.2-0.3,0.6c0,0.7,0,1.7,0.1,3.1c0.1,1.4,0.1,2.4,0.1,3.1c0,0.4-0.2,0.6-0.7,0.6l-4.1,0c-0.9,0-1.5,0-1.8-0.1
		c-0.4-0.1-0.6-0.3-0.6-0.7l0-15.5c0-3.1-0.2-5.8-0.7-7.9c0-0.1,0-0.2,0-0.3c0-0.2,0.1-0.3,0.2-0.4c0.5-0.2,1.5-0.4,3-0.6
		c1.4-0.2,2.5-0.3,3.1-0.3c0.5,0,0.8,0.3,0.9,1c0.1,0.7,0.2,1,0.3,1c-0.1,0,0.4-0.4,1.7-1.1c1.3-0.7,2.4-1.1,3.5-1.1
		c2.9,0,5.2,1,7,2.9C449.5,189.1,450.3,191.5,450.3,194.4z M442.8,194.4c0-1.1-0.3-2-1-2.8c-0.7-0.8-1.6-1.3-2.6-1.3
		c-1.1,0-1.9,0.4-2.6,1.3c-0.6,0.8-0.8,1.7-0.8,2.8c0,1.1,0.3,2.1,0.9,2.8c0.6,0.8,1.5,1.2,2.6,1.2
		C441.7,198.5,442.8,197.1,442.8,194.4z"/>
	<path class="st2" d="M473.1,194.1c0,1,0.1,2.6,0.2,4.6c0.1,2,0.2,3.6,0.2,4.6c0,0.5-0.2,0.8-0.7,0.9c-1.7,0.1-3.6,0.2-5.7,0.2
		c-0.3,0-0.4-0.4-0.5-1.2c-0.1-0.8-0.2-1.2-0.3-1.2c-0.1,0.1-0.2,0.2-0.4,0.3c-1.5,1.5-3.1,2.3-4.8,2.3c-2.6,0-4.8-1-6.5-3.1
		c-1.6-1.9-2.4-4.2-2.4-6.9c0-3.1,0.8-5.6,2.5-7.5c1.7-2,4.1-2.9,7.2-2.9c2.1,0,3.8,0.7,5,2.2c0.1,0.1,0.1,0.1,0.1,0.1
		c0.1,0,0.3-0.3,0.4-1s0.3-1,0.6-1c0.5,0,1.4,0.1,2.8,0.4c1.3,0.3,2.3,0.5,2.9,0.7c0.2,0.1,0.3,0.2,0.3,0.3c0,0.1,0,0.2-0.1,0.4
		C473.3,188.8,473.1,191.3,473.1,194.1z M466.6,194.2c0-1.1-0.4-2.1-1.1-2.8c-0.7-0.7-1.7-1.1-2.8-1.1s-2.1,0.4-2.8,1.1
		s-1.1,1.7-1.1,2.8c0,1.1,0.4,2,1.1,2.8c0.8,0.8,1.7,1.2,2.7,1.2c1.1,0,2.1-0.4,2.8-1.1S466.6,195.3,466.6,194.2z"/>
	<path class="st2" d="M490.4,191.6c0,0.5-0.3,0.8-0.9,0.8c-0.3,0-0.6,0-1.1-0.1c-0.5,0-0.9-0.1-1.1-0.1c-1.1,0-1.9,0.2-2.3,0.5
		c-0.4,0.3-0.6,1.1-0.6,2.1c0,0.6,0,1.5,0,2.6c0,1.2,0,2,0,2.6c0,0.4,0,1,0.1,1.7c0.1,0.8,0.1,1.3,0.1,1.7c0,0.3-0.2,0.5-0.7,0.5
		c-0.6,0.1-1.6,0.1-3,0.1c-1.3,0-2.3,0-3.1-0.1c-0.4-0.1-0.7-0.3-0.7-0.7c0-1.1,0-2.7,0-4.8c0-2.1,0-3.7,0-4.8
		c0-3.1-0.3-5.7-0.9-7.8c0-0.1,0-0.2,0-0.3c0-0.2,0.1-0.3,0.3-0.4c0.7-0.1,1.8-0.2,3.2-0.4c2.1-0.4,3.2-0.6,3.3-0.6
		c0.2,0,0.4,0.4,0.5,1.3s0.2,1.3,0.4,1.3c-0.2,0,0.4-0.4,1.6-1.1c1.3-0.7,2.5-1.1,3.7-1.1c0.8,0,1.1,0.2,1.1,0.5
		c0,0.4,0,0.9-0.1,1.6c-0.1,0.8-0.1,1.3-0.1,1.6c0,0.4,0,0.9,0,1.5C490.4,190.8,490.4,191.3,490.4,191.6z"/>
	<path class="st2" d="M506.2,198.2c0,0.4-0.1,1-0.2,1.8c-0.1,0.8-0.2,1.4-0.2,1.8s0,0.6-0.1,0.7c-0.1,0.1-0.3,0.3-0.7,0.5
		c-1.7,1-3.6,1.4-5.7,1.4c-3.9,0-5.8-1.5-5.8-4.4c0-0.9,0-2.2,0.1-4c0.1-1.8,0.1-3.1,0.1-4c0-0.6-0.3-0.9-1-0.9c-0.1,0-0.1,0-0.3,0
		c-0.1,0-0.2,0-0.3,0c-0.5,0-0.8-0.2-0.8-0.5c0-0.2,0-0.5,0-1c0-0.4,0.1-0.8,0.1-1c0-0.3,0-0.7-0.1-1.3s0-1,0-1.3
		c0-0.3,0.4-0.4,1.3-0.4c0.5,0,0.7-0.1,0.8-0.4c0.1-0.5,0.1-1.3,0.1-2.4c-0.1-1.7-0.1-2.6-0.1-2.5c0-1.6,0.1-2.3,0.4-2.3
		c0.4,0,0.9,0.1,1.5,0.2c0.8,0.2,1.3,0.3,1.6,0.3c0.7,0.1,1.7,0.2,3.1,0.4c0.3,0,0.5,0.1,0.5,0.3c0,0.5,0,1.3-0.1,2.4
		s-0.1,1.9-0.1,2.5c0,0.7,0.2,1,0.6,1c0.5,0,1.2,0,2.1-0.1s1.7-0.1,2.2-0.1c0.3,0,0.4,0.1,0.4,0.3c0,0.3,0,0.8-0.1,1.4
		c-0.1,0.6-0.1,1.1-0.1,1.4c0,0.3,0,0.8,0,1.4c0,0.6,0,1.1,0,1.4c0,0.3-0.2,0.4-0.6,0.4c-0.3,0-0.7,0-1.3,0c-0.6,0-1.1,0-1.3,0h-1.5
		c-0.2,0-0.3,0.3-0.3,0.9c0,0.3,0,0.8,0,1.4c0,0.6,0,1.1,0,1.4c0,1.1,0.1,1.9,0.4,2.3c0.4,0.6,1.1,0.9,2.1,0.9
		c0.3,0,0.8-0.1,1.4-0.2c0.6-0.2,1.1-0.2,1.3-0.2C506.1,197.8,506.2,197.9,506.2,198.2z"/>
	<path class="st2" d="M515.8,194.9c0,1,0,2.4,0.1,4.4c0,1.9,0.1,3.4,0.1,4.4c0,0.3-0.2,0.4-0.5,0.5c-0.5,0.1-1.5,0.1-3.1,0.1
		c-1.6,0-2.6,0-3.1-0.1c-0.3-0.1-0.5-0.1-0.5-0.3c0-0.1,0-0.3,0-0.6c0-0.9,0-2.3,0.1-4.2s0.1-3.3,0.1-4.2c0-3.8-0.1-6.8-0.4-9.1
		c0-0.2,0-0.4,0-0.4c0-0.3,0.2-0.4,0.5-0.4c0.4,0,0.9,0,1.7,0.1s1.4,0.1,1.7,0.1s1,0,1.7-0.1c0.8-0.1,1.4-0.1,1.7-0.1
		c0.3,0,0.5,0.1,0.5,0.4c0,0.1,0,0.2,0,0.4C515.9,188.4,515.8,191.4,515.8,194.9z M516.3,179.9c0,2.3-1.3,3.5-3.9,3.5
		c-1.1,0-2.1-0.3-2.8-0.9c-0.8-0.6-1.2-1.5-1.2-2.6c0-1,0.4-1.9,1.2-2.6c0.8-0.6,1.7-0.9,2.8-0.9c1,0,2,0.3,2.7,0.9
		C515.9,178.1,516.3,178.9,516.3,179.9z"/>
	<path class="st2" d="M541,175.6c0-0.3-0.1,0.1-0.2,1.3c-0.1,1.5-0.3,3.4-0.3,5.7c-0.1,2.6-0.2,5.6-0.2,9c0,5.5,0.2,9.5,0.5,11.8
		c0,0.3,0,0.4,0,0.5c0,0.1-0.1,0.2-0.3,0.3c-0.5,0.1-2.3,0.1-5.3,0.1c-0.7,0-1.1-0.1-1.2-0.4c0-0.5-0.1-1-0.1-1.5
		c0-0.1-0.1-0.2-0.2-0.3c-0.1,0-0.2,0.1-0.3,0.2c-1.4,1.4-3.3,2.1-5.4,2.1c-2.8,0-5.1-1-6.8-3c-1.6-1.9-2.4-4.3-2.4-7.2
		c0-2.9,0.8-5.3,2.4-7.2c1.7-2,4-3,6.8-3c2,0,3.6,0.6,4.7,1.9c0.2,0.2,0.3,0.3,0.4,0.3c0.1,0,0.2-0.2,0.2-0.5c0-1,0-2.6-0.1-4.6
		s-0.1-3.6-0.1-4.6c0-0.4,0.1-0.6,0.3-0.7c0.9,0,2-0.1,3.5-0.2c2.7-0.3,3.9-0.5,3.6-0.5C540.8,175.1,541,175.2,541,175.6z
		 M533.4,194.1c0-1.1-0.4-2-1.1-2.8c-0.7-0.8-1.6-1.2-2.7-1.2c-1.1,0-2,0.4-2.6,1.2c-0.7,0.8-1,1.8-1,2.9c0,1.1,0.3,2,1,2.8
		c0.7,0.8,1.5,1.2,2.6,1.2s2-0.4,2.7-1.2C533,196.1,533.4,195.1,533.4,194.1z"/>
	<path class="st2" d="M563.3,194.2c0,3.1-0.9,5.5-2.8,7.4s-4.3,2.9-7.4,2.9c-2.9,0-5.4-0.9-7.3-2.8c-1.9-1.9-2.9-4.3-2.9-7.2
		c0-3.1,0.9-5.6,2.7-7.6c1.8-1.9,4.3-2.9,7.4-2.9c3,0,5.5,0.9,7.4,2.8C562.3,188.7,563.3,191.2,563.3,194.2z M556.7,194.2
		c0-1.1-0.3-2-1-2.8c-0.7-0.8-1.5-1.2-2.6-1.2c-1.1,0-1.9,0.4-2.6,1.2c-0.6,0.8-1,1.7-1,2.8c0,1.1,0.3,2,1,2.8
		c0.7,0.8,1.6,1.2,2.6,1.2c1,0,1.9-0.4,2.6-1.2C556.4,196.2,556.7,195.3,556.7,194.2z"/>
	<path class="st2" d="M577.5,187.8c0,0.1-0.1,0.3-0.3,0.5c-0.4-0.1-0.8-0.1-1.1-0.1c-0.8,0-1.5,0.2-2,0.5c-0.6,0.4-1,1-1,1.7
		c0,0.5,0.3,1.1,1,1.8c1,1.1,1.7,1.8,1.9,2.2c0.7,1,1,2.1,1,3.3c0,0.7-0.1,1.4-0.4,2.2c-0.3,0.8-0.7,1.5-1.2,1.8
		c-1,0.9-2.2,1.6-3.5,2.2c-1.4,0.6-2.8,0.9-4,0.9c-0.3,0-0.9-0.7-1.8-2.2c-0.9-1.5-1.4-2.3-1.4-2.7c0-0.1,0.1-0.2,0.2-0.2
		c0.9-0.2,1.9-0.3,2.8-0.5c1.2-0.4,1.8-1,1.8-1.8c0-0.6-0.3-1.3-1-2.1c-1.2-1.4-1.9-2.1-1.9-2.2c-0.7-1-1-2-1-3.1c0-2,1-3.7,3.1-5.1
		c1.8-1.2,3.8-1.9,5.8-1.9c0.2,0,0.7,0.7,1.6,2.2C577.1,186.8,577.5,187.6,577.5,187.8z"/>
</g>
</svg>
