<svg id="Capa_1" data-name="Capa 1" xmlns="http://www.w3.org/2000/svg" viewBox="0 0 1914 600"><defs><style>.cls-1{fill:#fff;stroke:#ffaf28;stroke-miterlimit:10;stroke-width:15px;}.cls-2{font-size:259px;fill:#000546;font-family:Lobster-Regular, Lobster;letter-spacing:0.01em;}.cls-3{fill:#ff1103;}</style></defs><title>wheels</title><path class="cls-1" d="M959.3,269c131.38,1.74,246.68,18.84,341.35,56.15,68.71,27.09,136.91,54.41,207.82,80.57,53.79,19.83,103.14,41.44,157.47,61,51.82,18.61,98.51,39.26,150,57.91,28.42,10.3,55.19,21.22,83.27,31.62,11.51,4.27,11.8,7.42.15,11.79-110.8,41.5-219,84.07-327.87,126.38-22.29,8.66-45.37,17.1-67.76,25.77-69.84,27-138.25,54.67-209.36,81.15C1208,833.48,1106,851.42,986,853.73c-120.73,2.32-228.41-10.26-324.12-39.36-12.95-3.94-25.87-8-37.55-12.47q-97.32-37.5-194-75.27c-75.26-29.29-149.12-59.16-226.1-87.71-53.63-19.9-104.2-41-157.17-61.09-9.73-3.7-20.24-7.08-30.47-10.57-9.32-3.17-10.68-6.2-1-9.89q107.79-41.07,215.2-82.31c2.56-1,5.2-1.93,7.74-2.92,94.88-37.1,188.26-74.83,285.2-111,53.7-20.07,101.78-42.74,164-59.1,63.28-16.63,132.45-26.89,207.57-31.19C916.65,269.59,937.75,269.05,959.3,269Z" transform="translate(-1.5 -261.5)"/><text class="cls-2" transform="translate(583.81 296.21)">Wheels</text><text x="-1.5" y="-261.5"/><path class="cls-3" d="M492.08,684V633.8h10.55v41.34h20.18V684Z" transform="translate(-1.5 -261.5)"/><path class="cls-3" d="M540.13,684.92a11.46,11.46,0,0,1-5.93-1.5,10.56,10.56,0,0,1-4-4.08,11.83,11.83,0,0,1-1.43-5.81,10.66,10.66,0,0,1,5.16-9.4q5.16-3.37,16.63-4.62a8,8,0,0,0-.73-3.15,4.75,4.75,0,0,0-2-2.16,7.23,7.23,0,0,0-3.58-.77,14,14,0,0,0-5,1,34.23,34.23,0,0,0-5.19,2.58l-3.85-7a44.74,44.74,0,0,1,4.93-2.55,31,31,0,0,1,5.39-1.8,24.77,24.77,0,0,1,5.77-.66,16,16,0,0,1,8.16,1.93,12.12,12.12,0,0,1,5,5.66,22.86,22.86,0,0,1,1.69,9.43v22h-8.62l-.77-4h-.31a23,23,0,0,1-5.2,3.54A13.67,13.67,0,0,1,540.13,684.92Zm3.54-8.16a6.89,6.89,0,0,0,3.66-1,19.53,19.53,0,0,0,3.27-2.58V666a31.16,31.16,0,0,0-6.93,1.5,8.51,8.51,0,0,0-3.62,2.31,4.53,4.53,0,0,0-1.07,2.89,3.63,3.63,0,0,0,1.3,3.08A5.44,5.44,0,0,0,543.67,676.76Z" transform="translate(-1.5 -261.5)"/><path class="cls-3" d="M595.88,684.92a11.44,11.44,0,0,1-5.93-1.5,10.59,10.59,0,0,1-4-4.08,11.82,11.82,0,0,1-1.42-5.81,10.66,10.66,0,0,1,5.16-9.4q5.16-3.37,16.63-4.62a8.19,8.19,0,0,0-.73-3.15,4.81,4.81,0,0,0-2-2.16,7.26,7.26,0,0,0-3.58-.77,14,14,0,0,0-5,1,34.31,34.31,0,0,0-5.2,2.58l-3.85-7a45.65,45.65,0,0,1,4.93-2.55,31.29,31.29,0,0,1,5.39-1.8A24.92,24.92,0,0,1,602,645a16,16,0,0,1,8.16,1.93,12.1,12.1,0,0,1,5,5.66,22.85,22.85,0,0,1,1.7,9.43v22h-8.63l-.77-4h-.3a23.44,23.44,0,0,1-5.2,3.54A13.73,13.73,0,0,1,595.88,684.92Zm3.54-8.16a6.94,6.94,0,0,0,3.66-1,19.53,19.53,0,0,0,3.27-2.58V666a30.9,30.9,0,0,0-6.93,1.5,8.44,8.44,0,0,0-3.62,2.31,4.54,4.54,0,0,0-1.08,2.89,3.64,3.64,0,0,0,1.31,3.08A5.4,5.4,0,0,0,599.42,676.76Z" transform="translate(-1.5 -261.5)"/><path class="cls-3" d="M626.75,698.4V645.88h8.63l.77,3.86h.31a23.19,23.19,0,0,1,5.15-3.39,13.8,13.8,0,0,1,13.86,1,15.44,15.44,0,0,1,5.12,6.77,26.38,26.38,0,0,1,1.81,10.21,24.47,24.47,0,0,1-2.31,11.12,17.79,17.79,0,0,1-6,7,13.88,13.88,0,0,1-7.82,2.42,11.93,11.93,0,0,1-4.85-1,16,16,0,0,1-4.47-3l.31,6.08v11.4Zm17.17-22.1a6.44,6.44,0,0,0,3.85-1.27,8.26,8.26,0,0,0,2.78-3.89,19.16,19.16,0,0,0,1-6.7,19.76,19.76,0,0,0-.77-5.89,7.36,7.36,0,0,0-2.35-3.66,6.27,6.27,0,0,0-4-1.23,7.76,7.76,0,0,0-3.54.85,13.57,13.57,0,0,0-3.62,2.85v16.25a10.88,10.88,0,0,0,3.43,2.07A9.35,9.35,0,0,0,643.92,676.3Z" transform="translate(-1.5 -261.5)"/><path class="cls-3" d="M670.64,698.4V645.88h8.63l.77,3.86h.3a23.26,23.26,0,0,1,5.16-3.39,13.8,13.8,0,0,1,13.86,1,15.44,15.44,0,0,1,5.12,6.77,26.38,26.38,0,0,1,1.81,10.21A24.47,24.47,0,0,1,704,675.49a17.79,17.79,0,0,1-6,7,13.88,13.88,0,0,1-7.82,2.42,11.93,11.93,0,0,1-4.85-1,16,16,0,0,1-4.47-3l.31,6.08v11.4Zm17.17-22.1a6.44,6.44,0,0,0,3.85-1.27,8.26,8.26,0,0,0,2.78-3.89,19.16,19.16,0,0,0,1-6.7,19.76,19.76,0,0,0-.77-5.89,7.36,7.36,0,0,0-2.35-3.66,6.27,6.27,0,0,0-4-1.23,7.76,7.76,0,0,0-3.54.85,13.57,13.57,0,0,0-3.62,2.85v16.25a10.88,10.88,0,0,0,3.43,2.07A9.35,9.35,0,0,0,687.81,676.3Z" transform="translate(-1.5 -261.5)"/><path class="cls-3" d="M743.48,684.92a13.82,13.82,0,0,1-11.35-5.31q-4.27-5.31-4.28-14.63a23.41,23.41,0,0,1,2.27-10.7,17.59,17.59,0,0,1,5.93-6.89,13.76,13.76,0,0,1,7.74-2.43,12,12,0,0,1,5.39,1.08,17.18,17.18,0,0,1,4.16,3l-.39-5.93V630H763.5v54h-8.62l-.77-3.85h-.31a18.35,18.35,0,0,1-4.73,3.39A12.31,12.31,0,0,1,743.48,684.92Zm2.7-8.62a7.64,7.64,0,0,0,3.62-.85A9.77,9.77,0,0,0,753,672.6V656.28a9.4,9.4,0,0,0-3.35-2,10.59,10.59,0,0,0-3.42-.58,6.16,6.16,0,0,0-3.7,1.23,8.52,8.52,0,0,0-2.73,3.74,16.26,16.26,0,0,0-1,6.2q0,5.77,2,8.62A6.32,6.32,0,0,0,746.18,676.3Z" transform="translate(-1.5 -261.5)"/><path class="cls-3" d="M790.68,684.92a19.93,19.93,0,0,1-9.74-2.38,17.64,17.64,0,0,1-6.89-6.82A21.28,21.28,0,0,1,771.51,665a20.86,20.86,0,0,1,2.58-10.62,19.08,19.08,0,0,1,6.66-6.94,16.42,16.42,0,0,1,8.62-2.46,15.71,15.71,0,0,1,8.9,2.39,14.84,14.84,0,0,1,5.39,6.5,23.19,23.19,0,0,1,1.81,9.36,22.36,22.36,0,0,1-.16,2.73,18.23,18.23,0,0,1-.31,2H779.83l-.08-7h16.63a9.43,9.43,0,0,0-1.62-5.74q-1.6-2.19-5.15-2.19a7.67,7.67,0,0,0-4,1.15,8.37,8.37,0,0,0-3.16,3.81,16.74,16.74,0,0,0-1.23,7,13.3,13.3,0,0,0,1.58,7,9.38,9.38,0,0,0,4,3.73,12.23,12.23,0,0,0,5.24,1.16,14,14,0,0,0,4.35-.66,20,20,0,0,0,4.12-1.88l3.46,6.39a25.62,25.62,0,0,1-6.35,3.08A22.13,22.13,0,0,1,790.68,684.92Z" transform="translate(-1.5 -261.5)"/><path class="cls-3" d="M837.5,684l-12.94-38.12h10.63l5.31,18.56q.69,2.85,1.46,5.78t1.54,5.85h.31q.78-2.93,1.54-5.85t1.54-5.78l5.24-18.56h10.16L849.67,684Z" transform="translate(-1.5 -261.5)"/><path class="cls-3" d="M873.69,640a5.92,5.92,0,0,1-4.24-1.61,5.41,5.41,0,0,1-1.69-4.09,5.28,5.28,0,0,1,1.69-4,6.52,6.52,0,0,1,8.51,0,5.37,5.37,0,0,1,1.66,4,5.49,5.49,0,0,1-1.66,4.09A5.88,5.88,0,0,1,873.69,640Zm-5.31,44V645.88h10.54V684Z" transform="translate(-1.5 -261.5)"/><path class="cls-3" d="M898.79,684.92a11.44,11.44,0,0,1-5.93-1.5,10.66,10.66,0,0,1-4-4.08,11.82,11.82,0,0,1-1.42-5.81,10.66,10.66,0,0,1,5.16-9.4q5.16-3.37,16.63-4.62a8.19,8.19,0,0,0-.73-3.15,4.81,4.81,0,0,0-2-2.16,7.23,7.23,0,0,0-3.58-.77,14,14,0,0,0-5.05,1,34.23,34.23,0,0,0-5.19,2.58l-3.85-7a45.49,45.49,0,0,1,4.92-2.55,31.58,31.58,0,0,1,5.39-1.8A24.92,24.92,0,0,1,905,645a16,16,0,0,1,8.16,1.93,12.12,12.12,0,0,1,5,5.66,22.86,22.86,0,0,1,1.69,9.43v22h-8.62l-.77-4h-.31a23.21,23.21,0,0,1-5.2,3.54A13.67,13.67,0,0,1,898.79,684.92Zm3.54-8.16a6.89,6.89,0,0,0,3.66-1,19.53,19.53,0,0,0,3.27-2.58V666a31,31,0,0,0-6.93,1.5,8.51,8.51,0,0,0-3.62,2.31,4.54,4.54,0,0,0-1.08,2.89,3.64,3.64,0,0,0,1.31,3.08A5.44,5.44,0,0,0,902.33,676.76Z" transform="translate(-1.5 -261.5)"/><path class="cls-3" d="M927.59,699.32a20,20,0,0,1-3.82-.31,20.77,20.77,0,0,1-2.73-.69l1.93-7.78a15.1,15.1,0,0,0,1.5.39,7.48,7.48,0,0,0,1.5.15,3.42,3.42,0,0,0,3.27-1.57,10.19,10.19,0,0,0,.89-4.82l.15-38.81h10.55l-.15,38.58a22.25,22.25,0,0,1-1.2,7.47,10.73,10.73,0,0,1-4,5.39C933.54,698.66,930.92,699.32,927.59,699.32Zm0,0a20,20,0,0,1-3.82-.31,20.77,20.77,0,0,1-2.73-.69l1.93-7.78a15.1,15.1,0,0,0,1.5.39,7.48,7.48,0,0,0,1.5.15,3.42,3.42,0,0,0,3.27-1.57,10.19,10.19,0,0,0,.89-4.82l.15-38.81h10.55l-.15,38.58a22.25,22.25,0,0,1-1.2,7.47,10.73,10.73,0,0,1-4,5.39C933.54,698.66,930.92,699.32,927.59,699.32ZM935.13,640a6,6,0,0,1-4.31-1.61,5.41,5.41,0,0,1-1.69-4.09,5.28,5.28,0,0,1,1.69-4,6.09,6.09,0,0,1,4.31-1.58,6,6,0,0,1,4.28,1.58,5.36,5.36,0,0,1,1.65,4,5.49,5.49,0,0,1-1.65,4.09A5.9,5.9,0,0,1,935.13,640Z" transform="translate(-1.5 -261.5)"/><path class="cls-3" d="M967.55,684.92a19.93,19.93,0,0,1-9.74-2.38,17.57,17.57,0,0,1-6.89-6.82A21.18,21.18,0,0,1,948.38,665,20.76,20.76,0,0,1,951,654.36a18.92,18.92,0,0,1,6.66-6.94,16.42,16.42,0,0,1,8.62-2.46,15.68,15.68,0,0,1,8.89,2.39,14.71,14.71,0,0,1,5.39,6.5,23,23,0,0,1,1.81,9.36,24.57,24.57,0,0,1-.15,2.73c-.1.9-.21,1.58-.31,2H956.69l-.08-7h16.64a9.43,9.43,0,0,0-1.62-5.74q-1.62-2.19-5.16-2.19a7.64,7.64,0,0,0-4,1.15,8.31,8.31,0,0,0-3.16,3.81,16.74,16.74,0,0,0-1.23,7,13.2,13.2,0,0,0,1.58,7,9.32,9.32,0,0,0,4,3.73,12.18,12.18,0,0,0,5.23,1.16,14.16,14.16,0,0,0,4.36-.66,19.94,19.94,0,0,0,4.11-1.88l3.47,6.39a25.79,25.79,0,0,1-6.35,3.08A22.17,22.17,0,0,1,967.55,684.92Z" transform="translate(-1.5 -261.5)"/><path class="cls-3" d="M1001.35,684.92a21.85,21.85,0,0,1-7.74-1.5,24.5,24.5,0,0,1-6.81-3.81l4.77-6.62a27.24,27.24,0,0,0,5.08,3,12.42,12.42,0,0,0,5,1.08,6.22,6.22,0,0,0,3.93-1,3.31,3.31,0,0,0,1.23-2.7,2.91,2.91,0,0,0-1.12-2.27,10.55,10.55,0,0,0-2.92-1.69c-1.21-.49-2.48-1-3.82-1.5a32.71,32.71,0,0,1-4.73-2.31,13,13,0,0,1-3.93-3.55,8.73,8.73,0,0,1-1.58-5.31,10.57,10.57,0,0,1,3.93-8.51q3.93-3.27,10.4-3.27a18.21,18.21,0,0,1,7.54,1.46,27.69,27.69,0,0,1,5.62,3.32l-4.69,6.39a21.42,21.42,0,0,0-4.09-2.43,10,10,0,0,0-4.08-.88,5.64,5.64,0,0,0-3.58,1,3.07,3.07,0,0,0-1.19,2.5,2.57,2.57,0,0,0,1.08,2.08,11.39,11.39,0,0,0,2.85,1.54c1.18.46,2.43.92,3.77,1.39a33.72,33.72,0,0,1,4.85,2.27,12.59,12.59,0,0,1,4,3.54,9.28,9.28,0,0,1,1.62,5.66,11.21,11.21,0,0,1-1.77,6.16,12.06,12.06,0,0,1-5.2,4.39A19.78,19.78,0,0,1,1001.35,684.92Z" transform="translate(-1.5 -261.5)"/><path class="cls-3" d="M1055.87,684.92a19.24,19.24,0,0,1-9.47-2.34,17.21,17.21,0,0,1-6.74-6.82,21.72,21.72,0,0,1-2.5-10.78,20,20,0,0,1,2.77-10.78,18.87,18.87,0,0,1,7.24-6.85,20.08,20.08,0,0,1,9.62-2.39,15.88,15.88,0,0,1,6.31,1.19,19.26,19.26,0,0,1,4.86,3l-5.09,6.85a10,10,0,0,0-2.65-1.88,6.67,6.67,0,0,0-2.81-.58,8.69,8.69,0,0,0-5,1.42,9.26,9.26,0,0,0-3.27,4,16.33,16.33,0,0,0,0,12.09,9.13,9.13,0,0,0,3.19,4,8.07,8.07,0,0,0,4.66,1.39,9,9,0,0,0,3.85-.85,14.27,14.27,0,0,0,3.31-2.08l4.24,6.93a17.7,17.7,0,0,1-6.09,3.47A21,21,0,0,1,1055.87,684.92Z" transform="translate(-1.5 -261.5)"/><path class="cls-3" d="M1089.44,684.92a18.28,18.28,0,0,1-9-2.34,18.05,18.05,0,0,1-6.81-6.82,23.49,23.49,0,0,1,0-21.56,18.28,18.28,0,0,1,6.81-6.85,18.18,18.18,0,0,1,18,0,18.28,18.28,0,0,1,6.81,6.85,23.49,23.49,0,0,1,0,21.56,18,18,0,0,1-15.78,9.16Zm0-8.54a6.33,6.33,0,0,0,4.16-1.39,8.38,8.38,0,0,0,2.54-4,22.17,22.17,0,0,0,0-12.09,8.71,8.71,0,0,0-2.54-4,6.25,6.25,0,0,0-4.16-1.42,6.35,6.35,0,0,0-4.24,1.42,8.63,8.63,0,0,0-2.54,4,22.17,22.17,0,0,0,0,12.09,8.31,8.31,0,0,0,2.54,4A6.44,6.44,0,0,0,1089.44,676.38Z" transform="translate(-1.5 -261.5)"/><path class="cls-3" d="M1115.85,684V645.88h8.62l.77,5h.31a28.08,28.08,0,0,1,5.08-4.16,11.78,11.78,0,0,1,6.47-1.77,11.56,11.56,0,0,1,6.62,1.73,11.2,11.2,0,0,1,3.93,4.82,30.81,30.81,0,0,1,5.43-4.62,11.53,11.53,0,0,1,6.58-1.93q6.16,0,9,4.08t2.85,11.24V684H1161V661.67c0-2.87-.4-4.88-1.19-6A4.37,4.37,0,0,0,1156,654a6.49,6.49,0,0,0-3.32,1,18.38,18.38,0,0,0-3.69,3.08v26h-10.55V661.67c0-2.87-.4-4.88-1.19-6a4.37,4.37,0,0,0-3.82-1.69c-2.1,0-4.44,1.36-7,4.08v26Z" transform="translate(-1.5 -261.5)"/><path class="cls-3" d="M1181.53,698.4V645.88h8.62l.77,3.86h.31a23.26,23.26,0,0,1,5.16-3.39,13.8,13.8,0,0,1,13.86,1,15.52,15.52,0,0,1,5.12,6.77,26.38,26.38,0,0,1,1.81,10.21,24.47,24.47,0,0,1-2.31,11.12,17.73,17.73,0,0,1-6,7,13.85,13.85,0,0,1-7.81,2.42,11.89,11.89,0,0,1-4.85-1,15.87,15.87,0,0,1-4.47-3l.31,6.08v11.4Zm17.17-22.1a6.44,6.44,0,0,0,3.85-1.27,8.25,8.25,0,0,0,2.77-3.89,18.93,18.93,0,0,0,1-6.7,19.44,19.44,0,0,0-.77-5.89,7.28,7.28,0,0,0-2.34-3.66,6.29,6.29,0,0,0-4-1.23,7.76,7.76,0,0,0-3.54.85,13.57,13.57,0,0,0-3.62,2.85v16.25a11,11,0,0,0,3.42,2.07A9.41,9.41,0,0,0,1198.7,676.3Z" transform="translate(-1.5 -261.5)"/><path class="cls-3" d="M1234,684.92a11.4,11.4,0,0,1-5.92-1.5,10.59,10.59,0,0,1-4-4.08,11.83,11.83,0,0,1-1.43-5.81,10.66,10.66,0,0,1,5.16-9.4q5.16-3.37,16.64-4.62a8.2,8.2,0,0,0-.74-3.15,4.7,4.7,0,0,0-2-2.16,7.23,7.23,0,0,0-3.58-.77,14,14,0,0,0-5,1A34.31,34.31,0,0,0,1228,657l-3.85-7a44.74,44.74,0,0,1,4.93-2.55,31,31,0,0,1,5.39-1.8,24.83,24.83,0,0,1,5.77-.66,16,16,0,0,1,8.17,1.93,12.16,12.16,0,0,1,5,5.66,22.85,22.85,0,0,1,1.7,9.43v22h-8.63l-.77-4h-.31a23.15,23.15,0,0,1-5.19,3.54A13.75,13.75,0,0,1,1234,684.92Zm3.55-8.16a6.88,6.88,0,0,0,3.65-1,19.57,19.57,0,0,0,3.28-2.58V666a30.9,30.9,0,0,0-6.93,1.5,8.44,8.44,0,0,0-3.62,2.31,4.54,4.54,0,0,0-1.08,2.89,3.61,3.61,0,0,0,1.31,3.08A5.4,5.4,0,0,0,1237.59,676.76Z" transform="translate(-1.5 -261.5)"/><path class="cls-3" d="M1264.92,684V645.88h8.62l.77,6.7h.31a15.83,15.83,0,0,1,5-5.69,10.34,10.34,0,0,1,5.81-1.93,16.09,16.09,0,0,1,2.62.19,6.83,6.83,0,0,1,1.85.58l-1.77,9.16a18.39,18.39,0,0,0-1.89-.46,12.92,12.92,0,0,0-2.12-.15,8.31,8.31,0,0,0-4.62,1.61,12,12,0,0,0-4,5.7V684Z" transform="translate(-1.5 -261.5)"/><path class="cls-3" d="M1309.27,684.92q-6.93,0-9.89-4t-3-10.47V654.2h-5.23v-7.85l5.85-.47,1.23-10.16h8.7v10.16h9.32v8.32H1307v16.17a7,7,0,0,0,1.35,4.74,4.76,4.76,0,0,0,3.73,1.5,9.18,9.18,0,0,0,2-.23,14.41,14.41,0,0,0,1.77-.54l1.69,7.7c-1,.31-2.23.61-3.62.92A21.14,21.14,0,0,1,1309.27,684.92Z" transform="translate(-1.5 -261.5)"/><path class="cls-3" d="M1329.21,640a5.92,5.92,0,0,1-4.23-1.61,5.41,5.41,0,0,1-1.69-4.09,5.28,5.28,0,0,1,1.69-4,6.52,6.52,0,0,1,8.51,0,5.36,5.36,0,0,1,1.65,4,5.49,5.49,0,0,1-1.65,4.09A5.9,5.9,0,0,1,1329.21,640Zm-5.31,44V645.88h10.55V684Z" transform="translate(-1.5 -261.5)"/><path class="cls-3" d="M1358.4,684.92a13.84,13.84,0,0,1-11.36-5.31q-4.27-5.31-4.27-14.63a23.28,23.28,0,0,1,2.27-10.7,17.51,17.51,0,0,1,5.93-6.89,13.71,13.71,0,0,1,7.73-2.43,12,12,0,0,1,5.39,1.08,17,17,0,0,1,4.16,3l-.38-5.93V630h10.55v54h-8.63l-.77-3.85h-.31a18.35,18.35,0,0,1-4.73,3.39A12.27,12.27,0,0,1,1358.4,684.92Zm2.69-8.62a7.61,7.61,0,0,0,3.62-.85,9.9,9.9,0,0,0,3.16-2.85V656.28a9.57,9.57,0,0,0-3.35-2,10.69,10.69,0,0,0-3.43-.58,6.13,6.13,0,0,0-3.69,1.23,8.62,8.62,0,0,0-2.74,3.74,16.26,16.26,0,0,0-1,6.2q0,5.77,2,8.62A6.3,6.3,0,0,0,1361.09,676.3Z" transform="translate(-1.5 -261.5)"/><path class="cls-3" d="M1404.9,684.92a18,18,0,0,1-15.86-9.16,23.49,23.49,0,0,1,0-21.56,18.37,18.37,0,0,1,6.82-6.85,18.18,18.18,0,0,1,18,0,18.42,18.42,0,0,1,6.81,6.85,23.49,23.49,0,0,1,0,21.56,18,18,0,0,1-15.79,9.16Zm0-8.54a6.32,6.32,0,0,0,4.16-1.39,8.24,8.24,0,0,0,2.54-4,21.92,21.92,0,0,0,0-12.09,8.55,8.55,0,0,0-2.54-4,6.23,6.23,0,0,0-4.16-1.42,6.35,6.35,0,0,0-4.23,1.42,8.55,8.55,0,0,0-2.54,4,21.92,21.92,0,0,0,0,12.09,8.24,8.24,0,0,0,2.54,4A6.43,6.43,0,0,0,1404.9,676.38Z" transform="translate(-1.5 -261.5)"/><path class="cls-3" d="M1442,684.92a21.77,21.77,0,0,1-7.74-1.5,24.36,24.36,0,0,1-6.81-3.81l4.77-6.62a26.92,26.92,0,0,0,5.08,3,12.35,12.35,0,0,0,5,1.08,6.18,6.18,0,0,0,3.92-1,3.31,3.31,0,0,0,1.24-2.7,3,3,0,0,0-1.12-2.27,10.61,10.61,0,0,0-2.93-1.69q-1.8-.74-3.81-1.5a32.71,32.71,0,0,1-4.73-2.31,13,13,0,0,1-3.93-3.55,8.73,8.73,0,0,1-1.58-5.31,10.57,10.57,0,0,1,3.93-8.51q3.93-3.27,10.39-3.27a18.26,18.26,0,0,1,7.55,1.46,28,28,0,0,1,5.62,3.32l-4.7,6.39a21.06,21.06,0,0,0-4.08-2.43,10,10,0,0,0-4.08-.88,5.64,5.64,0,0,0-3.58,1,3,3,0,0,0-1.19,2.5,2.58,2.58,0,0,0,1.07,2.08,11.39,11.39,0,0,0,2.85,1.54c1.18.46,2.44.92,3.78,1.39a33.72,33.72,0,0,1,4.85,2.27,12.7,12.7,0,0,1,4,3.54,9.28,9.28,0,0,1,1.62,5.66,11.21,11.21,0,0,1-1.77,6.16,12.12,12.12,0,0,1-5.2,4.39A19.81,19.81,0,0,1,1442,684.92Z" transform="translate(-1.5 -261.5)"/><text x="-1.5" y="-261.5"/></svg>